<?xml version="1.0" encoding="UTF-8" standalone="no"?><svg xmlns="http://www.w3.org/2000/svg" xmlns:xlink="http://www.w3.org/1999/xlink" contentStyleType="text/css" height="221px" preserveAspectRatio="none" style="width:283px;height:221px;background:#FFFFFF;" version="1.1" viewBox="0 0 283 221" width="283px" zoomAndPan="magnify"><defs/><g><!--MD5=[7148ca90757e85fd6c4d232d33d4ba8d]
entity n386--><g id="elem_n386"><rect fill="#F1F1F1" height="65.2188" rx="2.5" ry="2.5" style="stroke:#181818;stroke-width:0.5;" width="270" x="7" y="150"/><rect fill="#F1F1F1" height="10" style="stroke:#181818;stroke-width:0.5;" width="15" x="257" y="155"/><rect fill="#F1F1F1" height="2" style="stroke:#181818;stroke-width:0.5;" width="4" x="255" y="157"/><rect fill="#F1F1F1" height="2" style="stroke:#181818;stroke-width:0.5;" width="4" x="255" y="161"/><text fill="#000000" font-family="sans-serif" font-size="14" font-style="italic" lengthAdjust="spacing" textLength="230" x="22" y="184.5332">«BoundedContext DDD JMolecules»</text><text fill="#000000" font-family="sans-serif" font-size="14" lengthAdjust="spacing" textLength="46" x="114" y="202.1426">catalog</text></g><!--MD5=[97c86e7533714053fe9390a7bca2af3c]
entity n387--><g id="elem_n387"><rect fill="#F1F1F1" height="65.2188" rx="2.5" ry="2.5" style="stroke:#181818;stroke-width:0.5;" width="270" x="7" y="7"/><rect fill="#F1F1F1" height="10" style="stroke:#181818;stroke-width:0.5;" width="15" x="257" y="12"/><rect fill="#F1F1F1" height="2" style="stroke:#181818;stroke-width:0.5;" width="4" x="255" y="14"/><rect fill="#F1F1F1" height="2" style="stroke:#181818;stroke-width:0.5;" width="4" x="255" y="18"/><text fill="#000000" font-family="sans-serif" font-size="14" font-style="italic" lengthAdjust="spacing" textLength="230" x="22" y="41.5332">«BoundedContext DDD JMolecules»</text><text fill="#000000" font-family="sans-serif" font-size="14" lengthAdjust="spacing" textLength="34" x="120" y="59.1426">order</text></g><!--MD5=[af9d70ca4302672f5fc47290c971e2b2]
link n387 to n386--><g id="link_n387_n386"><path d="M85.79,72.15 C75.78,80.49 66.73,90.45 61,102 C52.75,118.62 61.53,133.76 75.92,146.28 " fill="none" id="n387-to-n386" style="stroke:#181818;stroke-width:1.0;"/><polygon fill="#181818" points="80.12,149.73,75.712,140.9226,76.2591,146.553,70.6288,147.1,80.12,149.73" style="stroke:#181818;stroke-width:1.0;"/><text fill="#000000" font-family="sans-serif" font-size="13" lengthAdjust="spacing" textLength="115" x="62" y="116.4951">defines dependency</text></g><!--MD5=[af9d70ca4302672f5fc47290c971e2b2]
link n387 to n386--><g id="link_n387_n386"><path d="M167.58,72.27 C173.48,81.35 178.92,91.62 182,102 C186.38,116.77 181.28,132.1 173.42,145.31 " fill="none" id="n387-to-n386-1" style="stroke:#181818;stroke-width:1.0;"/><polygon fill="#181818" points="170.65,149.7,178.817,144.1954,173.3038,145.4624,172.0368,139.9493,170.65,149.7" style="stroke:#181818;stroke-width:1.0;"/><text fill="#000000" font-family="sans-serif" font-size="13" lengthAdjust="spacing" textLength="86" x="184" y="116.4951">depends on (7)</text></g><!--MD5=[b296d260795fe68a4f16b03ffe20f2d6]
@startuml

skinparam componentStyle uml2
  component "catalog" <<BoundedContext DDD JMolecules>> as n386
  component "order" <<BoundedContext DDD JMolecules>> as n387

n387 - -> n386 : defines dependency
n387 - -> n386 : depends on (7)

@enduml

PlantUML version 1.2022.12(Sun Oct 23 20:12:26 CEST 2022)
(GPL source distribution)
Java Runtime: OpenJDK Runtime Environment
JVM: OpenJDK 64-Bit Server VM
Default Encoding: Cp1252
Language: de
Country: DE
--></g></svg>