<svg xmlns="http://www.w3.org/2000/svg" width="205.05101013183594" height="192.57815551757812"
     viewBox="23.070846557617188 -5.233903884887695 205.05101013183594 192.57815551757812">
  <title>Neo4j Graph Visualization</title>
  <desc>Created using Neo4j (http://www.neo4j.com/)</desc>
  <g class="layer relationships">
    <g class="relationship" transform="translate(52.070847717097024 23.7660962115473) rotate(442.11807164810193)">
      <path class="outline" fill="#A5ABB6" stroke="none"
            d="M 25 0.5 L 33.86833730905926 0.5 L 33.86833730905926 -0.5 L 25 -0.5 Z M 94.99333730905926 0.5 L 103.86167461811851 0.5 L 103.86167461811851 3.5 L 110.86167461811851 0 L 103.86167461811851 -3.5 L 103.86167461811851 -0.5 L 94.99333730905926 -0.5 Z"/>
      <text text-anchor="middle" pointer-events="none" font-size="8px" fill="#000000" x="64.43083730905926" y="3"
            font-family="sans-serif">DEPENDS_ON
      </text>
    </g>
    <g class="relationship" transform="translate(199.12186320546888 60.60349986301087) rotate(502.7251579469038)">
      <path class="outline" fill="#A5ABB6" stroke="none"
            d="M 25 0.5 L 55.96568523333521 0.5 L 55.96568523333521 -0.5 L 25 -0.5 Z M 98.41881023333521 0.5 L 129.38449546667042 0.5 L 129.38449546667042 3.5 L 136.38449546667042 0 L 129.38449546667042 -3.5 L 129.38449546667042 -0.5 L 98.41881023333521 -0.5 Z"/>
      <text text-anchor="middle" pointer-events="none" font-size="8px" fill="#000000" x="77.19224773333521" y="3"
            transform="rotate(180 77.19224773333521 0)" font-family="sans-serif">OF_TYPE
      </text>
    </g>
    <g class="relationship" transform="translate(52.070847717097024 23.7660962115473) rotate(374.06361520058425)">
      <path class="outline" fill="#A5ABB6" stroke="none"
            d="M 25 0.5 L 37.658748041416416 0.5 L 37.658748041416416 -0.5 L 25 -0.5 Z M 106.93609179141642 0.5 L 119.59483983283283 0.5 L 119.59483983283283 3.5 L 126.59483983283283 0 L 119.59483983283283 -3.5 L 119.59483983283283 -0.5 L 106.93609179141642 -0.5 Z"/>
      <text text-anchor="middle" pointer-events="none" font-size="8px" fill="#000000" x="72.29741991641642" y="3"
            font-family="sans-serif">ANNOTATED_BY
      </text>
    </g>
  </g>
  <g class="layer nodes">
    <g class="node selected" transform="translate(70.70184757182886,158.3442537054456)">
      <circle class="outline" cx="0" cy="0" r="25" fill="#A5ABB6" stroke="#9AA1AC" stroke-width="2px"/>
      <text text-anchor="middle" pointer-events="none" y="5" font-size="10px" fill="#FFFFFF" font-family="sans-serif">
        Foo
      </text>
    </g>
    <g class="node" transform="translate(199.12186320546888,60.60349986301087)">
      <circle class="outline" cx="0" cy="0" r="25" fill="#A5ABB6" stroke="#9AA1AC" stroke-width="2px"/>
      <text text-anchor="middle" pointer-events="none" y="5" font-size="10px" fill="#FFFFFF" font-family="sans-serif">
        :Annotation
      </text>
    </g>
    <g class="node" transform="translate(52.070847717097024,23.7660962115473)">
      <circle class="outline" cx="0" cy="0" r="25" fill="#68BDF6" stroke="#5CA8DB" stroke-width="2px"/>
      <text text-anchor="middle" pointer-events="none" y="5" font-size="10px" fill="#FFFFFF" font-family="sans-serif">
        Dings
      </text>
    </g>
  </g>
</svg>